<svg height="18px" viewBox="0 0 512 512.25574" width="18px" xmlns="http://www.w3.org/2000/svg"><path d="m409.875 256.128906c0 89.542969-72.589844 162.132813-162.132812 162.132813-4.269532 0-8.621094-.171875-12.800782-.511719-84.285156-6.714844-149.257812-77.070312-149.257812-161.621094 0-84.550781 64.972656-154.910156 149.257812-161.621094 4.179688-.34375 8.53125-.511718 12.800782-.511718 43 0 84.238281 17.082031 114.644531 47.484375 30.40625 30.40625 47.488281 71.648437 47.488281 114.648437zm0 0" fill="#00695c"/><path d="m384.273438 256.128906c0-89.261718-66.859376-161.621094-149.332032-161.621094-82.476562 0-149.335937 72.359376-149.335937 161.621094 0 89.261719 66.859375 161.621094 149.335937 161.621094 82.472656 0 149.332032-72.359375 149.332032-161.621094zm0 0" fill="#009688"/><path d="m316.007812 196.394531c0 18.851563-15.28125 34.132813-34.132812 34.132813s-34.132812-15.28125-34.132812-34.132813c0-18.851562 15.28125-34.132812 34.132812-34.132812s34.132812 15.28125 34.132812 34.132812zm0 0" fill="#00838f"/><path d="m196.539062 221.996094c0 14.136718-11.460937 25.597656-25.597656 25.597656-14.140625 0-25.601562-11.460938-25.601562-25.597656 0-14.140625 11.460937-25.601563 25.601562-25.601563 14.136719 0 25.597656 11.460938 25.597656 25.601563zm0 0" fill="#00838f"/><path d="m273.339844 298.792969c0 14.140625-11.460938 25.601562-25.597656 25.601562-14.140626 0-25.601563-11.460937-25.601563-25.601562 0-14.136719 11.460937-25.597657 25.601563-25.597657 14.136718 0 25.597656 11.460938 25.597656 25.597657zm0 0" fill="#00838f"/><g fill="#009688"><path d="m273.339844 34.261719c0 14.136719-11.460938 25.597656-25.597656 25.597656-14.140626 0-25.601563-11.460937-25.601563-25.597656 0-14.140625 11.460937-25.601563 25.601563-25.601563 14.136718 0 25.597656 11.460938 25.597656 25.601563zm0 0"/><path d="m112.921875 87.175781c0 18.851563-15.28125 34.132813-34.132813 34.132813-18.851562 0-34.132812-15.28125-34.132812-34.132813 0-18.851562 15.28125-34.132812 34.132812-34.132812 18.851563 0 34.132813 15.28125 34.132813 34.132812zm0 0"/><path d="m51.472656 256.128906c0 11.78125-9.550781 21.332032-21.332031 21.332032s-21.332031-9.550782-21.332031-21.332032 9.550781-21.335937 21.332031-21.335937 21.332031 9.554687 21.332031 21.335937zm0 0"/><path d="m112.921875 425.078125c0 18.851563-15.28125 34.132813-34.132813 34.132813-18.851562 0-34.132812-15.28125-34.132812-34.132813s15.28125-34.132813 34.132812-34.132813c18.851563 0 34.132813 15.28125 34.132813 34.132813zm0 0"/><path d="m273.339844 477.996094c0 14.136718-11.460938 25.597656-25.597656 25.597656-14.140626 0-25.601563-11.460938-25.601563-25.597656 0-14.140625 11.460937-25.601563 25.601563-25.601563 14.136718 0 25.597656 11.460938 25.597656 25.601563zm0 0"/></g><path d="m450.824219 425.078125c0 18.851563-15.28125 34.132813-34.132813 34.132813-18.851562 0-34.132812-15.28125-34.132812-34.132813s15.28125-34.132813 34.132812-34.132813c18.851563 0 34.132813 15.28125 34.132813 34.132813zm0 0" fill="#00695c"/><path d="m503.742188 256.128906c0 14.136719-11.464844 25.597656-25.601563 25.597656s-25.601563-11.460937-25.601563-25.597656c0-14.140625 11.464844-25.601562 25.601563-25.601562s25.601563 11.460937 25.601563 25.601562zm0 0" fill="#00695c"/><path d="m450.824219 87.175781c0 18.851563-15.28125 34.132813-34.132813 34.132813-18.851562 0-34.132812-15.28125-34.132812-34.132813 0-18.851562 15.28125-34.132812 34.132812-34.132812 18.851563 0 34.132813 15.28125 34.132813 34.132812zm0 0" fill="#00695c"/><path d="m247.742188 375.59375c-4.714844 0-8.535157 3.820312-8.535157 8.535156 0 4.710938 3.820313 8.53125 8.535157 8.53125 75.367187-.089844 136.441406-61.164062 136.53125-136.53125 0-4.714844-3.820313-8.535156-8.53125-8.535156-4.714844 0-8.535157 3.820312-8.535157 8.535156-.070312 65.949219-53.515625 119.394532-119.464843 119.464844zm0 0"/><path d="m281.875 239.0625c23.5625 0 42.664062-19.105469 42.664062-42.667969s-19.101562-42.667969-42.664062-42.667969c-23.566406 0-42.667969 19.105469-42.667969 42.667969.027344 23.550781 19.113281 42.636719 42.667969 42.667969zm0-68.269531c14.136719 0 25.597656 11.464843 25.597656 25.601562s-11.460937 25.601563-25.597656 25.601563c-14.140625 0-25.601562-11.464844-25.601562-25.601563s11.460937-25.601562 25.601562-25.601562zm0 0"/><path d="m170.941406 187.859375c-18.851562 0-34.132812 15.285156-34.132812 34.136719 0 18.851562 15.28125 34.132812 34.132812 34.132812 18.851563 0 34.132813-15.28125 34.132813-34.132812 0-18.851563-15.28125-34.136719-34.132813-34.136719zm0 51.203125c-9.425781 0-17.066406-7.640625-17.066406-17.066406 0-9.425782 7.640625-17.066406 17.066406-17.066406 9.425782 0 17.066406 7.640624 17.066406 17.066406 0 9.425781-7.640624 17.066406-17.066406 17.066406zm0 0"/><path d="m281.875 298.792969c0-18.851563-15.285156-34.132813-34.132812-34.132813-18.851563 0-34.136719 15.28125-34.136719 34.132813 0 18.851562 15.285156 34.136719 34.136719 34.136719 18.847656 0 34.132812-15.285157 34.132812-34.136719zm-51.203125 0c0-9.425781 7.644531-17.066407 17.070313-17.066407 9.425781 0 17.066406 7.640626 17.066406 17.066407s-7.640625 17.066406-17.066406 17.066406c-9.425782 0-17.070313-7.640625-17.070313-17.066406zm0 0"/><path d="m150.632812 290.945312c-1.035156.429688-1.988281 1.039063-2.816406 1.789063-1.558594 1.636719-2.441406 3.800781-2.476562 6.058594.015625 1.117187.246094 2.21875.683594 3.246093.410156 1.042969 1.019531 2 1.792968 2.8125.828125.753907 1.78125 1.359376 2.816406 1.792969 1.023438.4375 2.125.667969 3.242188.683594 2.257812-.035156 4.421875-.917969 6.058594-2.476563.769531-.8125 1.378906-1.769531 1.789062-2.8125.4375-1.027343.671875-2.128906.683594-3.246093-.03125-2.257813-.914062-4.421875-2.472656-6.058594-2.476563-2.375-6.121094-3.078125-9.300782-1.789063zm0 0"/><path d="m193.296875 342.144531c-1.03125.433594-1.984375 1.039063-2.816406 1.792969-1.554688 1.632812-2.441407 3.796875-2.472657 6.058594.011719 1.113281.246094 2.214844.683594 3.242187.410156 1.042969 1.019532 2 1.789063 2.816407.832031.75 1.785156 1.359374 2.816406 1.789062 1.027344.4375 2.128906.671875 3.242187.683594 2.261719-.03125 4.425782-.917969 6.058594-2.472656.773438-.816407 1.382813-1.773438 1.792969-2.816407.4375-1.027343.667969-2.128906.683594-3.242187-.035157-2.261719-.917969-4.425782-2.476563-6.058594-2.476562-2.378906-6.117187-3.082031-9.300781-1.792969zm0 0"/><path d="m478.140625 221.996094c-15.515625.054687-29.042969 10.574218-32.921875 25.597656h-27.246094c-1.929687-39.273438-17.429687-76.65625-43.863281-105.769531l19.054687-19.054688c18.273438 12.078125 42.722657 8.359375 56.578126-8.609375 13.851562-16.964844 12.609374-41.667968-2.878907-57.15625-15.488281-15.488281-40.1875-16.730468-57.15625-2.878906-16.964843 13.855469-20.6875 38.304688-8.609375 56.578125l-19.011718 19.054687c-29.121094-26.441406-66.523438-41.945312-105.8125-43.863281v-18.710937c16.644531-4.296875 27.492187-20.300782 25.328124-37.351563-2.164062-17.050781-16.671874-29.832031-33.859374-29.832031-17.191407 0-31.695313 12.78125-33.863282 29.832031-2.164062 17.050781 8.6875 33.054688 25.328125 37.351563v18.710937c-39.273437 1.929688-76.660156 17.433594-105.769531 43.863281l-19.054688-19.054687c12.054688-18.25 8.332032-42.660156-8.609374-56.492187-16.941407-13.828126-41.605469-12.585938-57.070313 2.878906s-16.707031 40.128906-2.878906 57.070312c13.832031 16.945313 38.242187 20.664063 56.492187 8.609375l19.054688 19.054688c-26.429688 29.113281-41.933594 66.496093-43.863282 105.769531h-18.890624c-4.238282-14.210938-18.261719-23.160156-32.933594-21.019531-14.675782 2.140625-25.554688 14.722656-25.554688 29.554687 0 14.828125 10.878906 27.410156 25.554688 29.550782 14.671875 2.144531 28.695312-6.808594 32.933594-21.019532h18.890624c1.917969 39.289063 17.421876 76.691406 43.863282 105.8125l-19.054688 19.058594c-18.273437-12.082031-42.722656-8.359375-56.578125 8.605469-13.851562 16.96875-12.609375 41.667969 2.878907 57.15625 15.488281 15.488281 40.191406 16.734375 57.15625 2.878906 16.964843-13.851563 20.6875-38.304687 8.609374-56.578125l19.054688-19.054688c29.117188 26.417969 66.5 41.90625 105.769531 43.820313v18.714844c-16.640625 4.296875-27.492187 20.296875-25.328125 37.347656 2.167969 17.054687 16.671875 29.832031 33.863282 29.832031 17.1875 0 31.695312-12.777344 33.859374-29.832031 2.164063-17.050781-8.683593-33.050781-25.328124-37.347656v-18.714844c39.289062-1.917969 76.691406-17.421875 105.8125-43.863281l19.054687 19.058594c-12.078125 18.269531-8.355469 42.722656 8.609375 56.574218 16.964844 13.855469 41.667969 12.609375 57.15625-2.878906s16.730469-40.1875 2.878906-57.15625c-13.855468-16.964844-38.304687-20.683594-56.578125-8.605469l-19.097656-19.015625c26.441406-29.121094 41.945313-66.523437 43.863281-105.8125h27.246094c4.464844 17.132813 21.304688 27.992188 38.753906 24.988282 17.445313-3.003907 29.6875-18.867188 28.167969-36.507813-1.523437-17.636719-16.296875-31.171875-34-31.144531zm-79.546875-152.917969c7.320312-7.324219 18.332031-9.515625 27.898438-5.554687 9.566406 3.960937 15.804687 13.296874 15.804687 23.652343s-6.238281 19.691407-15.804687 23.652344c-9.566407 3.960937-20.578126 1.769531-27.898438-5.550781-4.820312-4.792969-7.53125-11.304688-7.53125-18.101563 0-6.792969 2.710938-13.308593 7.53125-18.097656zm-167.921875-34.816406c0-9.425781 7.644531-17.066407 17.070313-17.066407 9.425781 0 17.066406 7.640626 17.066406 17.066407s-7.640625 17.066406-17.066406 17.066406c-9.425782 0-17.070313-7.640625-17.070313-17.066406zm-169.980469 71.015625c-7.324218-7.324219-9.515625-18.335938-5.554687-27.902344 3.960937-9.566406 13.296875-15.804688 23.652343-15.804688 10.355469 0 19.691407 6.238282 23.652344 15.804688 3.960938 9.566406 1.769532 20.578125-5.554687 27.902344-9.996094 9.992187-26.199219 9.992187-36.195313 0zm-30.550781 163.652344c-7.070313 0-12.800781-5.734376-12.800781-12.800782 0-7.070312 5.730468-12.800781 12.800781-12.800781s12.800781 5.730469 12.800781 12.800781c0 7.066406-5.730468 12.800782-12.800781 12.800782zm66.746094 174.25c-7.320313 7.320312-18.332031 9.511718-27.898438 5.550781-9.566406-3.960938-15.804687-13.296875-15.804687-23.652344s6.238281-19.6875 15.804687-23.652344c9.566407-3.960937 20.578125-1.769531 27.898438 5.554688 9.996093 9.996093 9.996093 26.203125 0 36.199219zm167.921875 34.816406c0 9.425781-7.640625 17.066406-17.066406 17.066406-9.425782 0-17.070313-7.640625-17.070313-17.066406 0-9.425782 7.644531-17.066406 17.070313-17.066406 9.425781 0 17.066406 7.640624 17.066406 17.066406zm151.890625-78.507813c12.214843.003907 22.722656 8.636719 25.101562 20.617188 2.375 11.980469-4.042969 23.972656-15.328125 28.640625-11.289062 4.667968-24.300781.710937-31.078125-9.449219-6.78125-10.160156-5.4375-23.695313 3.207031-32.324219 4.796876-4.804687 11.308594-7.496094 18.097657-7.484375zm-168.957031 10.238281c-84.832032 0-153.601563-68.769531-153.601563-153.597656 0-84.832031 68.769531-153.601562 153.601563-153.601562 84.828124 0 153.597656 68.769531 153.597656 153.601562-.097656 84.789063-68.808594 153.5-153.597656 153.597656zm230.398437-136.53125c-9.425781 0-17.066406-7.640624-17.066406-17.066406 0-9.425781 7.640625-17.066406 17.066406-17.066406s17.066406 7.640625 17.066406 17.066406c0 9.425782-7.640625 17.066406-17.066406 17.066406zm0 0"/></svg>